<svg width="600" height="386" viewBox="0 0 600 386" fill="none" xmlns="http://www.w3.org/2000/svg">
<path fill-rule="evenodd" clip-rule="evenodd" d="M575.163 359.831H241.83L241.83 26.1697L575.163 26.1698L575.163 359.831ZM405.016 330.128C406.48 329.343 407.552 328.584 408.232 327.851V303.435L386.742 303.435V314.426H396.702V321.414C395.761 321.937 394.611 322.33 393.251 322.591C391.892 322.801 390.402 322.905 388.781 322.905C385.957 322.905 383.369 322.513 381.016 321.728C378.716 320.943 376.702 319.791 374.977 318.273C373.304 316.756 371.997 314.924 371.055 312.778C370.114 310.58 369.644 308.12 369.644 305.398C369.644 302.31 370.062 299.615 370.898 297.312C371.735 294.956 372.964 292.994 374.585 291.423C376.258 289.853 378.297 288.676 380.702 287.891C383.108 287.105 385.879 286.713 389.016 286.713C390.271 286.713 391.709 286.896 393.33 287.263C394.951 287.577 396.546 287.995 398.114 288.519C399.683 289.042 400.938 289.565 401.879 290.089L405.565 279.49C403.421 278.286 400.807 277.292 397.722 276.507C394.637 275.669 391.238 275.251 387.526 275.251C383.604 275.251 379.84 275.879 376.232 277.135C372.676 278.391 369.513 280.328 366.742 282.945C364.023 285.509 361.853 288.754 360.232 292.68C358.663 296.553 357.879 301.132 357.879 306.419C357.879 310.449 358.585 314.165 359.997 317.567C361.408 320.969 363.448 323.926 366.114 326.438C368.781 328.898 371.997 330.835 375.761 332.248C379.526 333.609 383.761 334.289 388.467 334.289C390.245 334.289 392.127 334.08 394.114 333.661C396.101 333.295 398.036 332.797 399.918 332.169C401.853 331.541 403.552 330.861 405.016 330.128ZM448.288 277.292C445.465 276.35 442.249 275.879 438.641 275.879H421.151V333.661H432.523V315.29H440.097L452.288 333.661H465.543L452.112 312.682C453.947 311.624 455.469 310.347 456.68 308.852C458.301 306.916 459.452 304.77 460.131 302.415C460.863 300.059 461.229 297.704 461.229 295.349C461.229 292.366 460.733 289.696 459.739 287.341C458.746 284.933 457.282 282.892 455.347 281.217C453.465 279.49 451.112 278.182 448.288 277.292ZM486.292 275.879H474.919V333.661H486.292V275.879ZM501.191 275.879V333.661H521.269C525.191 333.661 528.903 333.033 532.406 331.777C535.91 330.468 538.995 328.61 541.661 326.203C544.328 323.743 546.42 320.812 547.936 317.41C549.505 313.955 550.289 310.082 550.289 305.791C550.289 302.179 549.714 298.594 548.563 295.035C547.413 291.476 545.583 288.257 543.073 285.378C540.616 282.5 537.348 280.197 533.269 278.47C529.191 276.742 524.25 275.879 518.446 275.879H501.191Z" fill="#FC9270"/>
<path d="M440.602 304.299C442.327 304.299 443.765 304.011 444.916 303.435C446.066 302.86 446.955 302.127 447.582 301.237C448.262 300.347 448.733 299.431 448.994 298.489C449.308 297.495 449.465 296.579 449.465 295.741C449.465 295.113 449.36 294.328 449.151 293.386C448.994 292.392 448.628 291.397 448.053 290.403C447.478 289.408 446.589 288.571 445.386 287.891C444.236 287.21 442.667 286.87 440.68 286.87H432.523V304.299H440.602Z" fill="#FC9270"/>
<path d="M512.563 322.67H519.308C522.184 322.67 524.799 322.303 527.152 321.571C529.505 320.786 531.518 319.66 533.191 318.195C534.916 316.729 536.223 314.898 537.112 312.699C538.054 310.449 538.524 307.884 538.524 305.005C538.524 301.237 537.897 298.175 536.642 295.82C535.439 293.412 533.923 291.554 532.093 290.246C530.315 288.937 528.485 288.048 526.603 287.577C524.72 287.053 523.125 286.791 521.818 286.791H512.563V322.67Z" fill="#FC9270"/>
<path d="M143.791 143.932L26.1435 143.932L26.1435 26.1696L143.791 26.1696L143.791 143.932Z" fill="#70FCD2"/>
<path d="M215.686 143.932H169.934V98.1357H215.686V143.932Z" fill="#707EFC"/>
<path d="M215.686 71.9662L169.934 71.9662L169.934 26.1696L215.686 26.1696L215.686 71.9662Z" fill="#70DAFC"/>
<path d="M215.686 359.831L26.1435 359.831L26.1435 170.102L215.686 170.102V359.831Z" fill="#FCC470"/>
</svg>
