<svg width="200" height="43" viewBox="0 0 200 43" fill="none" xmlns="http://www.w3.org/2000/svg">
<g clip-path="url(#clip0_1119_34)">
<rect x="100" width="100" height="43" fill="white"/>
<path fill-rule="evenodd" clip-rule="evenodd" d="M200.148 43.695H67.9259L67.926 -87.6948L200.148 -87.6948L200.148 43.695ZM132.656 31.9987C133.237 31.6895 133.662 31.3907 133.932 31.1021V21.4875L125.408 21.4875V25.8156H129.359V28.5671C128.985 28.7732 128.529 28.9277 127.99 29.0308C127.45 29.1132 126.859 29.1544 126.216 29.1544C125.096 29.1544 124.07 28.9999 123.136 28.6907C122.224 28.3816 121.425 27.9281 120.741 27.3304C120.077 26.7328 119.559 26.0114 119.185 25.1664C118.812 24.3008 118.625 23.3321 118.625 22.2603C118.625 21.0443 118.791 19.9829 119.123 19.0761C119.455 18.1486 119.942 17.3757 120.585 16.7574C121.249 16.1391 122.058 15.6754 123.012 15.3662C123.966 15.0571 125.065 14.9025 126.31 14.9025C126.808 14.9025 127.378 14.9746 128.021 15.1189C128.664 15.2426 129.296 15.4075 129.919 15.6136C130.541 15.8197 131.039 16.0258 131.412 16.2319L132.874 12.0583C132.024 11.5843 130.987 11.1927 129.763 10.8835C128.539 10.5538 127.191 10.3889 125.719 10.3889C124.163 10.3889 122.67 10.6362 121.239 11.1309C119.828 11.6255 118.573 12.3881 117.474 13.4186C116.396 14.4285 115.535 15.7063 114.892 17.2521C114.27 18.7772 113.959 20.5806 113.959 22.6622C113.959 24.2492 114.239 25.7126 114.799 27.0522C115.359 28.3919 116.168 29.5564 117.225 30.5456C118.283 31.5143 119.559 32.2769 121.052 32.8334C122.545 33.3692 124.225 33.6372 126.092 33.6372C126.797 33.6372 127.544 33.5547 128.332 33.3898C129.12 33.2456 129.888 33.0498 130.634 32.8024C131.402 32.5551 132.076 32.2872 132.656 31.9987ZM149.821 11.1927C148.701 10.8217 147.425 10.6362 145.994 10.6362H139.057V33.3898H143.568V26.1557H146.572L151.408 33.3898H156.665L151.338 25.1288C152.065 24.7121 152.669 24.2094 153.15 23.6206C153.793 22.858 154.249 22.013 154.519 21.0856C154.809 20.1581 154.954 19.2307 154.954 18.3032C154.954 17.1284 154.757 16.0773 154.363 15.1498C153.969 14.2018 153.388 13.398 152.621 12.7384C151.874 12.0583 150.941 11.5431 149.821 11.1927ZM164.896 10.6362H160.385V33.3898H164.896V10.6362ZM170.806 10.6362V33.3898H178.77C180.326 33.3898 181.798 33.1425 183.188 32.6479C184.578 32.1326 185.801 31.401 186.859 30.4529C187.917 29.4842 188.746 28.33 189.348 26.9904C189.97 25.6301 190.281 24.105 190.281 22.4149C190.281 20.9928 190.053 19.581 189.597 18.1795C189.14 16.778 188.415 15.5105 187.419 14.377C186.444 13.2434 185.148 12.3366 183.53 11.6564C181.912 10.9763 179.952 10.6362 177.65 10.6362H170.806Z" fill="#FC9270"/>
<path d="M146.772 21.8275C147.457 21.8275 148.027 21.7142 148.483 21.4875C148.94 21.2608 149.292 20.9722 149.541 20.6218C149.811 20.2715 149.997 19.9108 150.101 19.5398C150.225 19.1482 150.288 18.7875 150.288 18.4578C150.288 18.2105 150.246 17.9013 150.163 17.5303C150.101 17.1387 149.956 16.7471 149.728 16.3555C149.499 15.9639 149.147 15.6342 148.67 15.3662C148.214 15.0983 147.591 14.9643 146.803 14.9643H143.568V21.8275H146.772Z" fill="#FC9270"/>
<path d="M175.317 29.0617H177.992C179.133 29.0617 180.17 28.9174 181.103 28.6289C182.037 28.3197 182.835 27.8766 183.499 27.2995C184.183 26.7225 184.702 26.0011 185.055 25.1355C185.428 24.2492 185.615 23.2393 185.615 22.1058C185.615 20.6218 185.366 19.4161 184.868 18.4887C184.391 17.5406 183.789 16.809 183.063 16.2937C182.358 15.7784 181.632 15.4281 180.886 15.2426C180.139 15.0365 179.506 14.9334 178.988 14.9334H175.317V29.0617Z" fill="#FC9270"/>
<path d="M29.0369 -41.322L-17.6298 -41.322L-17.6298 -87.6949L29.0369 -87.6949L29.0369 -41.322Z" fill="#70FCD2"/>
<path d="M57.5554 -41.322H39.4073V-59.3559H57.5554V-41.322Z" fill="#707EFC"/>
<path d="M57.5554 -69.661L39.4073 -69.661L39.4073 -87.6949L57.5554 -87.6949L57.5554 -69.661Z" fill="#70DAFC"/>
<path d="M57.5554 43.695L-17.6298 43.6949L-17.6297 -31.0169L57.5554 -31.0169V43.695Z" fill="#FCC470"/>
</g>
<defs>
<clipPath id="clip0_1119_34">
<rect width="200" height="43" fill="white"/>
</clipPath>
</defs>
</svg>
