<svg width="200" height="43" viewBox="0 0 200 43" fill="none" xmlns="http://www.w3.org/2000/svg">
<g clip-path="url(#clip0_1119_34)">
<path fill-rule="evenodd" clip-rule="evenodd" d="M200.81 43.373H77.4771L77.4772 -79.3728L200.81 -79.3728L200.81 43.373ZM137.856 32.4461C138.398 32.1573 138.794 31.8781 139.046 31.6085V22.6264L131.094 22.6264V26.6698H134.78V29.2403C134.432 29.4328 134.006 29.5772 133.503 29.6735C133 29.7505 132.449 29.789 131.849 29.789C130.804 29.789 129.847 29.6446 128.976 29.3558C128.125 29.067 127.38 28.6434 126.741 28.085C126.122 27.5266 125.639 26.8528 125.29 26.0633C124.942 25.2547 124.768 24.3497 124.768 23.3485C124.768 22.2125 124.923 21.2209 125.232 20.3737C125.542 19.5073 125.997 18.7852 126.596 18.2076C127.215 17.63 127.97 17.1967 128.86 16.9079C129.75 16.6191 130.775 16.4747 131.936 16.4747C132.4 16.4747 132.932 16.5421 133.532 16.6769C134.132 16.7924 134.722 16.9464 135.302 17.139C135.883 17.3315 136.347 17.5241 136.695 17.7166L138.059 13.8176C137.266 13.3748 136.299 13.0089 135.157 12.7201C134.016 12.4121 132.758 12.258 131.385 12.258C129.934 12.258 128.541 12.4891 127.206 12.9512C125.89 13.4133 124.72 14.1257 123.694 15.0884C122.688 16.0319 121.886 17.2256 121.286 18.6697C120.705 20.0945 120.415 21.7793 120.415 23.7239C120.415 25.2065 120.676 26.5736 121.199 27.8251C121.721 29.0766 122.476 30.1645 123.462 31.0887C124.449 31.9936 125.639 32.706 127.032 33.2259C128.425 33.7265 129.992 33.9768 131.733 33.9768C132.391 33.9768 133.087 33.8998 133.822 33.7458C134.557 33.611 135.273 33.4281 135.97 33.197C136.686 32.966 137.314 32.7157 137.856 32.4461ZM153.867 13.0089C152.822 12.6624 151.632 12.4891 150.297 12.4891H143.826V33.7458H148.034V26.9875H150.836L155.347 33.7458H160.251L155.282 26.0283C155.96 25.6389 156.524 25.1693 156.972 24.6193C157.571 23.9069 157.997 23.1174 158.249 22.251C158.519 21.3845 158.655 20.5181 158.655 19.6517C158.655 18.5542 158.471 17.5722 158.103 16.7058C157.736 15.8201 157.194 15.0692 156.478 14.453C155.782 13.8176 154.911 13.3363 153.867 13.0089ZM167.928 12.4891H163.72V33.7458H167.928V12.4891ZM173.441 12.4891V33.7458H180.87C182.321 33.7458 183.694 33.5147 184.99 33.0526C186.287 32.5713 187.428 31.8877 188.415 31.002C189.401 30.0971 190.175 29.0189 190.736 27.7673C191.317 26.4966 191.607 25.0717 191.607 23.4929C191.607 22.1643 191.394 20.8454 190.968 19.5361C190.543 18.2269 189.866 17.0427 188.937 15.9837C188.028 14.9248 186.819 14.0776 185.31 13.4422C183.801 12.8068 181.972 12.4891 179.825 12.4891H173.441Z" fill="#FC9270"/>
<path d="M151.023 22.9441C151.661 22.9441 152.193 22.8382 152.619 22.6264C153.044 22.4146 153.373 22.1451 153.605 21.8178C153.857 21.4904 154.031 21.1535 154.128 20.8069C154.244 20.4411 154.302 20.1041 154.302 19.7961C154.302 19.565 154.263 19.2762 154.186 18.9296C154.128 18.5638 153.992 18.198 153.78 17.8321C153.567 17.4663 153.238 17.1582 152.793 16.9079C152.367 16.6576 151.787 16.5325 151.052 16.5325H148.034V22.9441H151.023Z" fill="#FC9270"/>
<path d="M177.648 29.7024H180.144C181.208 29.7024 182.175 29.5676 183.046 29.298C183.917 29.0092 184.661 28.5953 185.281 28.0561C185.919 27.517 186.403 26.8431 186.732 26.0344C187.08 25.2065 187.254 24.2631 187.254 23.2041C187.254 21.8178 187.022 20.6914 186.557 19.825C186.112 18.9393 185.551 18.2557 184.874 17.7744C184.217 17.293 183.539 16.9657 182.843 16.7924C182.146 16.5999 181.556 16.5036 181.073 16.5036H177.648V29.7024Z" fill="#FC9270"/>
<path d="M41.2025 -36.0508L-2.32691 -36.0508L-2.32691 -79.3729L41.2025 -79.3729L41.2025 -36.0508Z" fill="#70FCD2"/>
<path d="M67.8038 -36.0508H50.8757V-52.8983H67.8038V-36.0508Z" fill="#707EFC"/>
<path d="M67.8038 -62.5254L50.8757 -62.5254L50.8757 -79.3728L67.8038 -79.3728L67.8038 -62.5254Z" fill="#70DAFC"/>
<path d="M67.8038 43.3729L-2.32691 43.3729L-2.32691 -26.4237L67.8038 -26.4237V43.3729Z" fill="#FCC470"/>
</g>
<defs>
<clipPath id="clip0_1119_34">
<rect width="200" height="43" fill="white"/>
</clipPath>
</defs>
</svg>
